<svg id="logo" data-name="logo" xmlns="http://www.w3.org/2000/svg" viewBox="0 0 960 960">
  <g id="logo">
    <g>
      <path d="M960,416.57l-67.23,116.45-48.51-83.87c-.71-.71-1.38-2.09-2.09-2.76,22.16-18.02,38.8-41.6,48.51-69.32l69.32,39.51h0Z"/>
      <path d="M601.63,859.49c-23.58-6.94-44.36-20.11-58.91-38.8,49.92-48.51,62.38-123.39,26.34-186.44l44.36,76.93c11.79,20.78,27.72,36.75,46.45,49.21,0,.71-.71,1.38-.71,2.09l-57.53,97.04v-.03Z"/>
      <path d="M395.79,869.19c-17.31-17.31-27.72-39.51-31.9-63.09,67.23-16.64,115.74-76.26,115.74-149.02v88.72c0,23.58,5.56,45.74,15.26,65.85-.71.71-1.38.71-1.38,1.38,0,0-97.72,56.15-97.72,56.15Z"/>
      <path d="M325.09,775.61h-112.98c-6.23-23.58-4.14-48.51,4.14-70.7,66.53,19.4,138.64-7.61,174.69-70.7l-44.36,76.93c-11.79,20.78-18.02,42.27-20.11,64.47,0-.71-.71,0-1.38,0h0Z"/>
      <path d="M198.23,658.49l-97.72-56.15c6.94-23.58,20.11-44.36,38.8-58.91,47.83,49.92,123.39,62.38,186.44,26.34l-76.93,44.36c-20.11,11.79-36.75,27.72-49.21,46.45-.71-1.38-.71-2.09-1.38-2.09Z"/>
      <path d="M133.76,478.96l-56.15-97.72c17.31-17.31,39.51-27.72,63.09-31.9,16.64,67.23,76.26,115.74,149.02,115.74h-89.43c-23.58,0-45.74,5.56-65.85,15.26,0-.71-.71-.71-.71-1.38h.03Z"/>
      <path d="M357.66,101.19c23.58,6.94,44.36,20.11,58.91,38.8-49.92,48.51-62.38,124.06-26.34,186.44l-44.36-76.93c-11.79-20.11-27.72-36.75-46.45-49.21,0-.71.71-1.38.71-2.09l57.53-97.04v.03Z"/>
      <path d="M563.54,90.81c17.31,17.31,27.72,39.51,31.9,63.09-67.23,16.64-115.74,76.26-115.74,149.02v-88.72c0-23.58-5.56-45.74-15.26-65.85.71-.71,1.38-.71,1.38-1.38,0,0,97.72-56.15,97.72-56.15Z"/>
      <path d="M634.91,185.06h112.3c6.23,23.58,4.14,48.51-4.14,70.7-66.53-19.4-138.64,7.61-174.69,70.7l44.36-76.93c11.79-20.11,18.02-42.27,20.11-64.47h2.09-.03Z"/>
      <path d="M761.77,302.21l97.72,56.15c-6.94,23.58-20.11,44.36-38.8,58.91-48.51-49.92-124.06-62.38-186.44-26.34l76.93-44.36c20.11-11.79,36.75-27.72,49.21-46.45,0,1.38.71,1.38,1.38,2.09h0Z"/>
      <path d="M443.62,346.58l-21.49-37.42c-26.34-45.74-19.4-99.81,13.88-136.56,4.85,13.17,8.32,27.05,8.32,42.27v131.71h-.71Z"/>
      <path d="M345.87,444.29h-43.65c-52.68,0-95.66-33.28-111.6-80.4,13.88,2.09,27.72,6.94,40.89,13.88,0,0,114.36,66.53,114.36,66.53Z"/>
      <path d="M515.71,614.13l21.49,37.42c26.34,45.74,19.4,99.81-13.88,136.56-4.85-13.17-8.32-27.05-8.32-42.27v-131.71h.71,0Z"/>
      <path d="M657.11,515.71c52.68,0,96.34,33.28,111.6,80.4-13.88-2.09-27.72-6.94-40.89-13.88l-114.36-65.85h43.65v-.71.03Z"/>
      <path d="M613.42,444.29l37.42-21.49c45.74-26.34,99.81-19.4,136.56,13.88-13.17,4.85-27.05,8.32-42.27,8.32l-131.71-.71h0Z"/>
      <path d="M692.45,316.06l-114.36,65.85,21.49-37.42c26.34-45.74,76.93-66.53,125.47-56.83-9.03,11.08-20.11,20.78-32.57,28.43l-.03-.03Z"/>
      <path d="M581.56,231.51l-65.85,114.36v-43.65c0-52.68,33.28-95.66,80.4-111.6-2.09,14.55-6.94,28.43-14.55,40.89h0Z"/>
      <path d="M315.39,267.55l65.85,114.36-37.42-21.49c-45.07-26.34-66.53-76.93-56.15-125.47,11.08,9.03,20.78,20.11,27.72,32.57v.03Z"/>
      <path d="M325.76,391.61l-76.93-44.36c-20.11-11.79-42.27-18.02-64.47-20.11v-114.36c23.58-6.23,48.51-4.14,70.7,4.14-18.73,66.53,8.32,137.94,70.7,174.69Z"/>
      <path d="M213.49,515.71h132.38l-37.42,21.49c-45.74,26.34-99.81,19.4-136.56-13.88,12.46-4.14,27.05-7.61,41.6-7.61h0Z"/>
      <path d="M267.55,643.94l114.36-65.85-21.49,37.42c-26.34,45.74-76.93,66.53-125.47,56.83,8.32-11.08,19.4-20.78,32.57-28.43l.03.03Z"/>
      <path d="M377.77,728.49l65.85-114.36v43.65c0,52.68-33.28,95.66-80.4,111.6,2.76-14.55,6.94-27.72,14.55-40.89h0Z"/>
      <path d="M643.94,692.45l-65.85-114.36,37.42,21.49c45.74,26.34,66.53,76.93,56.83,125.47-11.79-9.03-20.78-19.4-28.43-32.57l.03-.03Z"/>
      <path d="M633.53,569.06l76.93,44.36c20.11,11.79,42.27,18.02,64.47,20.11v114.36c-23.58,6.23-48.51,4.14-70.7-4.14,19.4-66.53-7.61-138.64-70.7-174.69h0Z"/>
      <path d="M657.11,480.34h88.72c23.58,0,45.74-5.56,65.85-15.26,0,.71.71,1.38,1.38,1.38l56.15,97.72c-17.31,17.31-39.51,27.72-63.09,31.9-16.64-67.23-76.26-115.74-149.02-115.74h0Z"/>
      <path d="M863.66,185.06v134.47l-83.87-48.51c-.71-.71-2.09-.71-2.76-1.38,10.41-26.34,13.17-55.44,7.61-84.55h79.02v-.03Z"/>
      <path d="M731.96,149.02h-100.51c-4.14-27.72-16.64-54.77-36.04-76.93l69.32-40.22,67.23,117.15h0Z"/>
      <path d="M415.9,0l116.45,67.23-83.87,48.51c-.71.71-2.09,1.38-2.76,2.09-18.02-22.16-41.6-38.8-69.32-48.51L415.9,0Z"/>
      <path d="M184.39,96.34h134.47l-48.51,83.87c-.71.71-.71,2.09-1.38,2.76-26.34-10.41-55.44-13.17-84.55-7.61v-79.02h-.03Z"/>
      <path d="M149.02,228.04v100.51c-27.72,4.85-54.77,16.64-76.93,36.04l-40.22-69.32s117.15-67.23,117.15-67.23Z"/>
      <path d="M0,544.1l67.23-116.45,48.51,83.87c.71.71,1.38,2.09,2.09,2.76-22.16,18.02-38.8,41.6-48.51,69.32L0,544.1Z"/>
      <path d="M95.66,775.61v-134.47l83.87,48.51c.71.71,2.09.71,2.76,1.38-10.41,26.34-13.17,55.44-7.61,84.55h-79.02v.03Z"/>
      <path d="M228.04,810.98h100.51c4.85,28.43,16.64,54.77,36.04,76.93l-69.32,39.51-67.23-116.45h0Z"/>
      <path d="M543.43,960l-116.45-67.23,83.87-48.51c.71-.71,2.09-1.38,2.76-2.09,18.02,22.16,41.6,38.8,69.32,48.51l-39.51,69.32h0Z"/>
      <path d="M774.94,863.66h-134.47l48.51-83.87c.71-.71.71-2.09,1.38-2.76,26.34,10.41,55.44,13.17,84.55,7.61v79.02h.03Z"/>
      <path d="M810.98,731.96v-100.51c28.43-4.14,54.77-16.64,76.93-36.04l39.51,69.32-116.45,67.23h0Z"/>
    </g>
  </g>
</svg>
