<?xml version="1.0" encoding="UTF-8"?>
<svg id="Laag_1" data-name="Laag 1" xmlns="http://www.w3.org/2000/svg" viewBox="0 0 285 285">
  <g id="logo_item--logo_0" data-name="logo  item--logo 0">
    <g>
      <path d="M285,123.67l-19.96,34.57-14.4-24.9c-.21-.21-.41-.62-.62-.82,6.58-5.35,11.52-12.35,14.4-20.58l20.58,11.73Z"/>
      <path d="M178.61,255.16c-7-2.06-13.17-5.97-17.49-11.52,14.82-14.4,18.52-36.63,7.82-55.35l13.17,22.84c3.5,6.17,8.23,10.91,13.79,14.61,0,.21-.21.41-.21.62l-17.08,28.81Z"/>
      <path d="M117.5,258.04c-5.14-5.14-8.23-11.73-9.47-18.73,19.96-4.94,34.36-22.64,34.36-44.24v26.34c0,7,1.65,13.58,4.53,19.55-.21.21-.41.21-.41.41l-29.01,16.67Z"/>
      <path d="M96.51,230.26h-33.54c-1.85-7-1.23-14.4,1.23-20.99,19.75,5.76,41.16-2.26,51.86-20.99l-13.17,22.84c-3.5,6.17-5.35,12.55-5.97,19.14,0-.21-.21,0-.41,0Z"/>
      <path d="M58.85,195.49l-29.01-16.67c2.06-7,5.97-13.17,11.52-17.49,14.2,14.82,36.63,18.52,55.35,7.82l-22.84,13.17c-5.97,3.5-10.91,8.23-14.61,13.79-.21-.41-.21-.62-.41-.62Z"/>
      <path d="M39.71,142.19l-16.67-29.01c5.14-5.14,11.73-8.23,18.73-9.47,4.94,19.96,22.64,34.36,44.24,34.36h-26.55c-7,0-13.58,1.65-19.55,4.53,0-.21-.21-.21-.21-.41Z"/>
      <path d="M106.18,30.04c7,2.06,13.17,5.97,17.49,11.52-14.82,14.4-18.52,36.83-7.82,55.35l-13.17-22.84c-3.5-5.97-8.23-10.91-13.79-14.61,0-.21.21-.41.21-.62l17.08-28.81Z"/>
      <path d="M167.3,26.96c5.14,5.14,8.23,11.73,9.47,18.73-19.96,4.94-34.36,22.64-34.36,44.24v-26.34c0-7-1.65-13.58-4.53-19.55.21-.21.41-.21.41-.41l29.01-16.67Z"/>
      <path d="M188.49,54.94h33.34c1.85,7,1.23,14.4-1.23,20.99-19.75-5.76-41.16,2.26-51.86,20.99l13.17-22.84c3.5-5.97,5.35-12.55,5.97-19.14h.62Z"/>
      <path d="M226.15,89.72l29.01,16.67c-2.06,7-5.97,13.17-11.52,17.49-14.4-14.82-36.83-18.52-55.35-7.82l22.84-13.17c5.97-3.5,10.91-8.23,14.61-13.79,0,.41.21.41.41.62Z"/>
      <path d="M131.7,102.89l-6.38-11.11c-7.82-13.58-5.76-29.63,4.12-40.54,1.44,3.91,2.47,8.03,2.47,12.55v39.1h-.21Z"/>
      <path d="M102.68,131.9h-12.96c-15.64,0-28.4-9.88-33.13-23.87,4.12.62,8.23,2.06,12.14,4.12l33.95,19.75Z"/>
      <path d="M153.1,182.32l6.38,11.11c7.82,13.58,5.76,29.63-4.12,40.54-1.44-3.91-2.47-8.03-2.47-12.55v-39.1h.21Z"/>
      <path d="M195.08,153.1c15.64,0,28.6,9.88,33.13,23.87-4.12-.62-8.23-2.06-12.14-4.12l-33.95-19.55h12.96v-.21Z"/>
      <path d="M182.11,131.9l11.11-6.38c13.58-7.82,29.63-5.76,40.54,4.12-3.91,1.44-8.03,2.47-12.55,2.47l-39.1-.21h0Z"/>
      <path d="M205.57,93.83l-33.95,19.55,6.38-11.11c7.82-13.58,22.84-19.75,37.25-16.87-2.68,3.29-5.97,6.17-9.67,8.44Z"/>
      <path d="M172.65,68.73l-19.55,33.95v-12.96c0-15.64,9.88-28.4,23.87-33.13-.62,4.32-2.06,8.44-4.32,12.14Z"/>
      <path d="M93.63,79.43l19.55,33.95-11.11-6.38c-13.38-7.82-19.75-22.84-16.67-37.25,3.29,2.68,6.17,5.97,8.23,9.67Z"/>
      <path d="M96.71,116.26l-22.84-13.17c-5.97-3.5-12.55-5.35-19.14-5.97v-33.95c7-1.85,14.4-1.23,20.99,1.23-5.56,19.75,2.47,40.95,20.99,51.86Z"/>
      <path d="M63.38,153.1h39.3l-11.11,6.38c-13.58,7.82-29.63,5.76-40.54-4.12,3.7-1.23,8.03-2.26,12.35-2.26Z"/>
      <path d="M79.43,191.17l33.95-19.55-6.38,11.11c-7.82,13.58-22.84,19.75-37.25,16.87,2.47-3.29,5.76-6.17,9.67-8.44Z"/>
      <path d="M112.15,216.27l19.55-33.95v12.96c0,15.64-9.88,28.4-23.87,33.13.82-4.32,2.06-8.23,4.32-12.14Z"/>
      <path d="M191.17,205.57l-19.55-33.95,11.11,6.38c13.58,7.82,19.75,22.84,16.87,37.25-3.5-2.68-6.17-5.76-8.44-9.67Z"/>
      <path d="M188.08,168.94l22.84,13.17c5.97,3.5,12.55,5.35,19.14,5.97v33.95c-7,1.85-14.4,1.23-20.99-1.23,5.76-19.75-2.26-41.16-20.99-51.86Z"/>
      <path d="M195.08,142.6h26.34c7,0,13.58-1.65,19.55-4.53,0,.21.21.41.41.41l16.67,29.01c-5.14,5.14-11.73,8.23-18.73,9.47-4.94-19.96-22.64-34.36-44.24-34.36Z"/>
      <path d="M256.4,54.94v39.92l-24.9-14.4c-.21-.21-.62-.21-.82-.41,3.09-7.82,3.91-16.46,2.26-25.1,0,0,23.46,0,23.46,0Z"/>
      <path d="M217.3,44.24h-29.84c-1.23-8.23-4.94-16.26-10.7-22.84l20.58-11.94,19.96,34.78Z"/>
      <path d="M123.47,0l34.57,19.96-24.9,14.4c-.21.21-.62.41-.82.62-5.35-6.58-12.35-11.52-20.58-14.4L123.47,0Z"/>
      <path d="M54.74,28.6h39.92l-14.4,24.9c-.21.21-.21.62-.41.82-7.82-3.09-16.46-3.91-25.1-2.26,0,0,0-23.46,0-23.46Z"/>
      <path d="M44.24,67.7v29.84c-8.23,1.44-16.26,4.94-22.84,10.7l-11.94-20.58,34.78-19.96Z"/>
      <path d="M0,161.53l19.96-34.57,14.4,24.9c.21.21.41.62.62.82-6.58,5.35-11.52,12.35-14.4,20.58L0,161.53Z"/>
      <path d="M28.4,230.26v-39.92l24.9,14.4c.21.21.62.21.82.41-3.09,7.82-3.91,16.46-2.26,25.1,0,0-23.46,0-23.46,0Z"/>
      <path d="M67.7,240.76h29.84c1.44,8.44,4.94,16.26,10.7,22.84l-20.58,11.73-19.96-34.57Z"/>
      <path d="M161.33,285l-34.57-19.96,24.9-14.4c.21-.21.62-.41.82-.62,5.35,6.58,12.35,11.52,20.58,14.4l-11.73,20.58Z"/>
      <path d="M230.06,256.4h-39.92l14.4-24.9c.21-.21.21-.62.41-.82,7.82,3.09,16.46,3.91,25.1,2.26,0,0,0,23.46,0,23.46Z"/>
      <path d="M240.76,217.3v-29.84c8.44-1.23,16.26-4.94,22.84-10.7l11.73,20.58-34.57,19.96Z"/>
    </g>
  </g>
</svg>